<mxCell id="0" />
        <mxCell id="1" parent="0" />
        <mxCell id="2" value="" style="group" connectable="0" vertex="1" parent="1">
          <mxGeometry x="10" y="938" width="1150" height="700" as="geometry" />
        </mxCell>
        <mxCell id="3" value="Вибір завдання зі списку" style="rounded=1;whiteSpace=wrap;html=1;strokeColor=#FFFFFF;fontColor=#000000;fillColor=#12AAB5;fontFamily=Inter;fontSource=https%3A%2F%2Ffonts.googleapis.com%2Fcss%3Ffamily%3DInter;fontSize=14;strokeWidth=2;" vertex="1" parent="2">
          <mxGeometry x="14" y="220.6300000000001" width="160" height="70" as="geometry" />
        </mxCell>
        <mxCell id="4" style="edgeStyle=orthogonalEdgeStyle;rounded=0;orthogonalLoop=1;jettySize=auto;html=1;entryX=0.5;entryY=0;entryDx=0;entryDy=0;labelBackgroundColor=none;fontColor=#000000;fontFamily=Inter;fontSource=https%3A%2F%2Ffonts.googleapis.com%2Fcss%3Ffamily%3DInter;fontSize=14;strokeColor=#FFFFFF;strokeWidth=2;" edge="1" parent="2" source="5" target="3">
          <mxGeometry relative="1" as="geometry" />
        </mxCell>
        <mxCell id="5" value="Аутентфікація&lt;br style=&quot;font-size: 14px;&quot;&gt; " style="rounded=1;whiteSpace=wrap;html=1;strokeColor=#FFFFFF;fontColor=#000000;fillColor=#12AAB5;fontFamily=Inter;fontSource=https%3A%2F%2Ffonts.googleapis.com%2Fcss%3Ffamily%3DInter;fontSize=14;strokeWidth=2;" vertex="1" parent="2">
          <mxGeometry x="14" y="100" width="160" height="70" as="geometry" />
        </mxCell>
        <mxCell id="6" value="Запуск" style="rounded=1;whiteSpace=wrap;html=1;strokeColor=#FFFFFF;fillColor=#d5e8d4;fontColor=#000000;fontFamily=Inter;fontSource=https%3A%2F%2Ffonts.googleapis.com%2Fcss%3Ffamily%3DInter;fontSize=14;strokeWidth=2;" vertex="1" parent="2">
          <mxGeometry x="221.56" y="111.38999999999987" width="77.5" height="63.75" as="geometry" />
        </mxCell>
        <mxCell id="7" style="edgeStyle=orthogonalEdgeStyle;rounded=0;orthogonalLoop=1;jettySize=auto;html=1;entryX=0;entryY=0.5;entryDx=0;entryDy=0;labelBackgroundColor=none;fontColor=#000000;fontFamily=Inter;fontSource=https%3A%2F%2Ffonts.googleapis.com%2Fcss%3Ffamily%3DInter;fontSize=14;strokeColor=#FFFFFF;strokeWidth=2;" edge="1" parent="2" target="31">
          <mxGeometry relative="1" as="geometry">
            <Array as="points">
              <mxPoint x="182" y="396" />
              <mxPoint x="182" y="57" />
            </Array>
            <mxPoint x="166" y="395.61538461538476" as="sourcePoint" />
            <mxPoint x="192.30999999999995" y="57" as="targetPoint" />
          </mxGeometry>
        </mxCell>
        <mxCell id="8" value="Активація обладнання" style="rounded=1;whiteSpace=wrap;html=1;strokeColor=#FFFFFF;fillColor=#d5e8d4;fontColor=#000000;fontFamily=Inter;fontSource=https%3A%2F%2Ffonts.googleapis.com%2Fcss%3Ffamily%3DInter;fontSize=14;strokeWidth=2;" vertex="1" parent="2">
          <mxGeometry x="14" y="360.6300000000001" width="160" height="70" as="geometry" />
        </mxCell>
        <mxCell id="9" style="edgeStyle=orthogonalEdgeStyle;rounded=0;orthogonalLoop=1;jettySize=auto;html=1;entryX=0.5;entryY=0;entryDx=0;entryDy=0;labelBackgroundColor=none;fontColor=#000000;fontFamily=Inter;fontSource=https%3A%2F%2Ffonts.googleapis.com%2Fcss%3Ffamily%3DInter;fontSize=14;strokeColor=#FFFFFF;strokeWidth=2;" edge="1" parent="2" source="3" target="8">
          <mxGeometry relative="1" as="geometry" />
        </mxCell>
        <mxCell id="10" value="&lt;b style=&quot;font-size: 14px;&quot;&gt;Робітник&lt;/b&gt;" style="shape=umlActor;verticalLabelPosition=bottom;verticalAlign=top;html=1;outlineConnect=0;labelBackgroundColor=none;strokeColor=#FFFFFF;fontColor=#000000;fillColor=#006600;fontFamily=Inter;fontSource=https%3A%2F%2Ffonts.googleapis.com%2Fcss%3Ffamily%3DInter;fontSize=14;strokeWidth=2;" vertex="1" parent="2">
          <mxGeometry x="70" width="30" height="60" as="geometry" />
        </mxCell>
        <mxCell id="11" value="Перевірка&amp;nbsp; &amp;nbsp;унікального коду" style="shape=hexagon;perimeter=hexagonPerimeter2;whiteSpace=wrap;html=1;fixedSize=1;strokeColor=#FFFFFF;fillColor=#fff2cc;fontColor=#000000;fontFamily=Inter;fontSource=https%3A%2F%2Ffonts.googleapis.com%2Fcss%3Ffamily%3DInter;fontSize=14;strokeWidth=2;" vertex="1" parent="2">
          <mxGeometry x="745" y="213.6300000000001" width="120" height="70" as="geometry" />
        </mxCell>
        <mxCell id="12" style="edgeStyle=orthogonalEdgeStyle;rounded=0;orthogonalLoop=1;jettySize=auto;html=1;labelBackgroundColor=none;fontColor=#000000;fontFamily=Inter;fontSource=https%3A%2F%2Ffonts.googleapis.com%2Fcss%3Ffamily%3DInter;fontSize=14;entryX=0.75;entryY=1;entryDx=0;entryDy=0;strokeColor=#FFFFFF;strokeWidth=2;" edge="1" parent="2" source="13" target="6">
          <mxGeometry relative="1" as="geometry" />
        </mxCell>
        <mxCell id="13" value="Зняття невірного рулону" style="rounded=1;whiteSpace=wrap;html=1;strokeColor=#FFFFFF;fillColor=#f8cecc;fontColor=#000000;fontFamily=Inter;fontSource=https%3A%2F%2Ffonts.googleapis.com%2Fcss%3Ffamily%3DInter;fontSize=14;strokeWidth=2;" vertex="1" parent="2">
          <mxGeometry x="437.99999999999994" y="311.3699999999999" width="160" height="70" as="geometry" />
        </mxCell>
        <mxCell id="14" style="edgeStyle=orthogonalEdgeStyle;rounded=0;orthogonalLoop=1;jettySize=auto;html=1;entryX=0.5;entryY=0;entryDx=0;entryDy=0;labelBackgroundColor=none;fontColor=#000000;fontFamily=Inter;fontSource=https%3A%2F%2Ffonts.googleapis.com%2Fcss%3Ffamily%3DInter;fontSize=14;strokeColor=#FFFFFF;strokeWidth=2;" edge="1" parent="2" source="15" target="13">
          <mxGeometry relative="1" as="geometry" />
        </mxCell>
        <mxCell id="15" value="Зупинка" style="rounded=1;whiteSpace=wrap;html=1;strokeColor=#FFFFFF;fillColor=#f8cecc;fontColor=#000000;fontFamily=Inter;fontSource=https%3A%2F%2Ffonts.googleapis.com%2Fcss%3Ffamily%3DInter;fontSize=14;strokeWidth=2;" vertex="1" parent="2">
          <mxGeometry x="469.99999999999994" y="233.3800000000001" width="95" height="44.5" as="geometry" />
        </mxCell>
        <mxCell id="16" style="edgeStyle=orthogonalEdgeStyle;rounded=0;orthogonalLoop=1;jettySize=auto;html=1;entryX=0;entryY=0.5;entryDx=0;entryDy=0;strokeColor=#FFFFFF;strokeWidth=2;fontSize=14;" edge="1" parent="2" source="17" target="15">
          <mxGeometry relative="1" as="geometry" />
        </mxCell>
        <mxCell id="17" value="Перевірка на відповідність першої етикетки та завдання" style="shape=hexagon;perimeter=hexagonPerimeter2;whiteSpace=wrap;html=1;fixedSize=1;labelBackgroundColor=none;strokeColor=#FFFFFF;fillColor=#fff2cc;fontColor=#000000;fontFamily=Inter;fontSource=https%3A%2F%2Ffonts.googleapis.com%2Fcss%3Ffamily%3DInter;fontSize=14;strokeWidth=2;" vertex="1" parent="2">
          <mxGeometry x="320.31" y="108.25999999999999" width="177" height="70" as="geometry" />
        </mxCell>
        <mxCell id="18" style="edgeStyle=orthogonalEdgeStyle;rounded=0;orthogonalLoop=1;jettySize=auto;html=1;labelBackgroundColor=none;fontColor=#000000;fontFamily=Inter;fontSource=https%3A%2F%2Ffonts.googleapis.com%2Fcss%3Ffamily%3DInter;entryX=0;entryY=0.5;entryDx=0;entryDy=0;fontSize=14;strokeColor=#FFFFFF;strokeWidth=2;" edge="1" parent="2" source="6" target="17">
          <mxGeometry relative="1" as="geometry">
            <mxPoint x="488.31" y="237" as="targetPoint" />
          </mxGeometry>
        </mxCell>
        <mxCell id="19" style="edgeStyle=orthogonalEdgeStyle;rounded=0;orthogonalLoop=1;jettySize=auto;html=1;entryX=1;entryY=0.5;entryDx=0;entryDy=0;labelBackgroundColor=none;fontColor=#000000;fontFamily=Inter;fontSource=https%3A%2F%2Ffonts.googleapis.com%2Fcss%3Ffamily%3DInter;fontSize=14;strokeColor=#FFFFFF;strokeWidth=2;" edge="1" parent="2" source="20" target="15">
          <mxGeometry relative="1" as="geometry" />
        </mxCell>
        <mxCell id="20" value="Перевірка на відповідність другої етикетки та завдання" style="shape=hexagon;perimeter=hexagonPerimeter2;whiteSpace=wrap;html=1;fixedSize=1;labelBackgroundColor=none;strokeColor=#FFFFFF;fillColor=#fff2cc;fontColor=#000000;fontFamily=Inter;fontSource=https%3A%2F%2Ffonts.googleapis.com%2Fcss%3Ffamily%3DInter;fontSize=14;strokeWidth=2;" vertex="1" parent="2">
          <mxGeometry x="514" y="108.25999999999999" width="180" height="70" as="geometry" />
        </mxCell>
        <mxCell id="21" style="edgeStyle=orthogonalEdgeStyle;rounded=0;orthogonalLoop=1;jettySize=auto;html=1;entryX=0;entryY=0.5;entryDx=0;entryDy=0;labelBackgroundColor=none;fontColor=#000000;fontFamily=Inter;fontSource=https%3A%2F%2Ffonts.googleapis.com%2Fcss%3Ffamily%3DInter;fontSize=14;strokeColor=#FFFFFF;strokeWidth=2;" edge="1" parent="2" source="17" target="20">
          <mxGeometry relative="1" as="geometry" />
        </mxCell>
        <mxCell id="22" style="edgeStyle=orthogonalEdgeStyle;rounded=0;orthogonalLoop=1;jettySize=auto;html=1;labelBackgroundColor=none;fontColor=#000000;fontFamily=Inter;fontSource=https%3A%2F%2Ffonts.googleapis.com%2Fcss%3Ffamily%3DInter;fontSize=14;entryX=0.5;entryY=0;entryDx=0;entryDy=0;strokeColor=#FFFFFF;strokeWidth=2;" edge="1" parent="2" source="23" target="11">
          <mxGeometry relative="1" as="geometry">
            <mxPoint x="769.69" y="218.1300000000001" as="targetPoint" />
          </mxGeometry>
        </mxCell>
        <mxCell id="23" value="Нанесення унікального коду лазерним принтером" style="rounded=1;whiteSpace=wrap;html=1;labelBackgroundColor=none;strokeColor=#FFFFFF;fillColor=#dae8fc;fontColor=#000000;fontFamily=Inter;fontSource=https%3A%2F%2Ffonts.googleapis.com%2Fcss%3Ffamily%3DInter;fontSize=14;strokeWidth=2;" vertex="1" parent="2">
          <mxGeometry x="710" y="108.25999999999999" width="190" height="64" as="geometry" />
        </mxCell>
        <mxCell id="24" style="edgeStyle=orthogonalEdgeStyle;rounded=0;orthogonalLoop=1;jettySize=auto;html=1;entryX=0;entryY=0.5;entryDx=0;entryDy=0;labelBackgroundColor=none;fontColor=#000000;fontFamily=Inter;fontSource=https%3A%2F%2Ffonts.googleapis.com%2Fcss%3Ffamily%3DInter;fontSize=14;strokeColor=#FFFFFF;strokeWidth=2;" edge="1" parent="2" source="20" target="23">
          <mxGeometry relative="1" as="geometry" />
        </mxCell>
        <mxCell id="25" value="Зупинка" style="rounded=1;whiteSpace=wrap;html=1;strokeColor=#FFFFFF;fillColor=#f8cecc;fontColor=#000000;fontFamily=Inter;fontSource=https%3A%2F%2Ffonts.googleapis.com%2Fcss%3Ffamily%3DInter;fontSize=14;strokeWidth=2;" vertex="1" parent="2">
          <mxGeometry x="756.5" y="318.93000000000006" width="95" height="44.5" as="geometry" />
        </mxCell>
        <mxCell id="26" style="edgeStyle=orthogonalEdgeStyle;rounded=0;orthogonalLoop=1;jettySize=auto;html=1;entryX=0.5;entryY=0;entryDx=0;entryDy=0;labelBackgroundColor=none;fontColor=#000000;fontFamily=Inter;fontSource=https%3A%2F%2Ffonts.googleapis.com%2Fcss%3Ffamily%3DInter;fontSize=14;strokeColor=#FFFFFF;strokeWidth=2;" edge="1" parent="2" source="11" target="25">
          <mxGeometry relative="1" as="geometry" />
        </mxCell>
        <mxCell id="27" style="edgeStyle=orthogonalEdgeStyle;rounded=0;orthogonalLoop=1;jettySize=auto;html=1;labelBackgroundColor=none;fontColor=#000000;fontFamily=Inter;fontSource=https%3A%2F%2Ffonts.googleapis.com%2Fcss%3Ffamily%3DInter;exitX=0.038;exitY=0.5;exitDx=0;exitDy=0;fontSize=14;exitPerimeter=0;strokeColor=#FFFFFF;strokeWidth=2;entryX=0.25;entryY=1;entryDx=0;entryDy=0;" edge="1" parent="2" source="28" target="6">
          <mxGeometry relative="1" as="geometry">
            <mxPoint x="240" y="180" as="targetPoint" />
            <Array as="points">
              <mxPoint x="730" y="432" />
              <mxPoint x="241" y="432" />
            </Array>
          </mxGeometry>
        </mxCell>
        <mxCell id="28" value="Зняття невірно маркованої тари" style="rounded=1;whiteSpace=wrap;html=1;strokeColor=#FFFFFF;fillColor=#f8cecc;fontColor=#000000;fontFamily=Inter;fontSource=https%3A%2F%2Ffonts.googleapis.com%2Fcss%3Ffamily%3DInter;fontSize=14;strokeWidth=2;" vertex="1" parent="2">
          <mxGeometry x="724" y="397.18000000000006" width="160" height="59.63" as="geometry" />
        </mxCell>
        <mxCell id="29" style="edgeStyle=orthogonalEdgeStyle;rounded=0;orthogonalLoop=1;jettySize=auto;html=1;entryX=0.5;entryY=0;entryDx=0;entryDy=0;labelBackgroundColor=none;fontColor=#000000;fontFamily=Inter;fontSource=https%3A%2F%2Ffonts.googleapis.com%2Fcss%3Ffamily%3DInter;fontSize=14;strokeColor=#FFFFFF;strokeWidth=2;" edge="1" parent="2" source="25" target="28">
          <mxGeometry relative="1" as="geometry" />
        </mxCell>
        <mxCell id="30" style="edgeStyle=orthogonalEdgeStyle;rounded=0;orthogonalLoop=1;jettySize=auto;html=1;entryX=0.5;entryY=0;entryDx=0;entryDy=0;labelBackgroundColor=none;fontColor=#000000;fontFamily=Inter;fontSource=https%3A%2F%2Ffonts.googleapis.com%2Fcss%3Ffamily%3DInter;fontSize=14;strokeColor=#FFFFFF;strokeWidth=2;" edge="1" parent="2" source="31" target="6">
          <mxGeometry relative="1" as="geometry" />
        </mxCell>
        <mxCell id="31" value="Унікальне маркування" style="shape=process;whiteSpace=wrap;html=1;backgroundOutline=1;labelBackgroundColor=none;strokeColor=#FFFFFF;fontColor=#000000;fillColor=#f5f5f5;fontFamily=Inter;fontSource=https%3A%2F%2Ffonts.googleapis.com%2Fcss%3Ffamily%3DInter;fontSize=14;strokeWidth=2;" vertex="1" parent="2">
          <mxGeometry x="200.31" y="27" width="120" height="60" as="geometry" />
        </mxCell>
        <mxCell id="32" value="Пауза" style="shape=process;whiteSpace=wrap;html=1;strokeColor=#FFFFFF;fontColor=#000000;fillColor=#f5f5f5;fontFamily=Inter;fontSource=https%3A%2F%2Ffonts.googleapis.com%2Fcss%3Ffamily%3DInter;rounded=0;fontSize=14;strokeWidth=2;" vertex="1" parent="2">
          <mxGeometry x="931.31" y="24.5" width="150" height="65" as="geometry" />
        </mxCell>
        <mxCell id="33" style="edgeStyle=orthogonalEdgeStyle;rounded=0;orthogonalLoop=1;jettySize=auto;html=1;entryX=0;entryY=0.5;entryDx=0;entryDy=0;labelBackgroundColor=none;fontColor=#000000;fontFamily=Inter;fontSource=https%3A%2F%2Ffonts.googleapis.com%2Fcss%3Ffamily%3DInter;fontSize=14;strokeColor=#FFFFFF;strokeWidth=2;" edge="1" parent="2" source="31" target="32">
          <mxGeometry relative="1" as="geometry" />
        </mxCell>
        <mxCell id="34" value="Призупинення роботи" style="rounded=1;whiteSpace=wrap;html=1;labelBackgroundColor=none;strokeColor=#FFFFFF;fillColor=#dae8fc;fontColor=#000000;fontFamily=Inter;fontSource=https%3A%2F%2Ffonts.googleapis.com%2Fcss%3Ffamily%3DInter;fontSize=14;strokeWidth=2;" vertex="1" parent="2">
          <mxGeometry x="946.81" y="113.25999999999999" width="120" height="60" as="geometry" />
        </mxCell>
        <mxCell id="35" style="edgeStyle=orthogonalEdgeStyle;rounded=0;orthogonalLoop=1;jettySize=auto;html=1;entryX=0.5;entryY=0;entryDx=0;entryDy=0;labelBackgroundColor=none;fontColor=#000000;fontFamily=Inter;fontSource=https%3A%2F%2Ffonts.googleapis.com%2Fcss%3Ffamily%3DInter;fontSize=14;strokeColor=#FFFFFF;strokeWidth=2;" edge="1" parent="2" source="32" target="34">
          <mxGeometry relative="1" as="geometry" />
        </mxCell>
        <mxCell id="36" value="Причини зупинки" style="shape=hexagon;perimeter=hexagonPerimeter2;whiteSpace=wrap;html=1;fixedSize=1;strokeColor=#FFFFFF;fillColor=#fff2cc;fontColor=#000000;fontFamily=Inter;fontSource=https%3A%2F%2Ffonts.googleapis.com%2Fcss%3Ffamily%3DInter;fontSize=14;strokeWidth=2;" vertex="1" parent="2">
          <mxGeometry x="946.31" y="194" width="120" height="65" as="geometry" />
        </mxCell>
        <mxCell id="37" style="edgeStyle=orthogonalEdgeStyle;rounded=0;orthogonalLoop=1;jettySize=auto;html=1;entryX=0.5;entryY=0;entryDx=0;entryDy=0;labelBackgroundColor=none;fontColor=#000000;fontFamily=Inter;fontSource=https%3A%2F%2Ffonts.googleapis.com%2Fcss%3Ffamily%3DInter;fontSize=14;strokeColor=#FFFFFF;strokeWidth=2;" edge="1" parent="2" source="34" target="36">
          <mxGeometry relative="1" as="geometry" />
        </mxCell>
        <mxCell id="38" value="Перерва" style="rounded=1;whiteSpace=wrap;html=1;labelBackgroundColor=none;strokeColor=#FFFFFF;fillColor=#dae8fc;fontColor=#000000;fontFamily=Inter;fontSource=https%3A%2F%2Ffonts.googleapis.com%2Fcss%3Ffamily%3DInter;fontSize=14;strokeWidth=2;" vertex="1" parent="2">
          <mxGeometry x="871.06" y="281.3700000000001" width="80" height="30" as="geometry" />
        </mxCell>
        <mxCell id="39" style="edgeStyle=orthogonalEdgeStyle;rounded=0;orthogonalLoop=1;jettySize=auto;html=1;exitX=0;exitY=0.5;exitDx=0;exitDy=0;entryX=0.493;entryY=-0.011;entryDx=0;entryDy=0;entryPerimeter=0;strokeColor=#FFFFFF;strokeWidth=2;fontSize=14;" edge="1" parent="2" source="36" target="38">
          <mxGeometry relative="1" as="geometry">
            <mxPoint x="910" y="280" as="targetPoint" />
            <Array as="points">
              <mxPoint x="910" y="227" />
              <mxPoint x="910" y="260" />
              <mxPoint x="911" y="260" />
            </Array>
          </mxGeometry>
        </mxCell>
        <mxCell id="40" value="Наладка" style="rounded=1;whiteSpace=wrap;html=1;labelBackgroundColor=none;strokeColor=#FFFFFF;fillColor=#dae8fc;fontColor=#000000;fontFamily=Inter;fontSource=https%3A%2F%2Ffonts.googleapis.com%2Fcss%3Ffamily%3DInter;fontSize=14;strokeWidth=2;" vertex="1" parent="2">
          <mxGeometry x="966.25" y="281.3700000000001" width="80" height="30" as="geometry" />
        </mxCell>
        <mxCell id="41" style="edgeStyle=orthogonalEdgeStyle;rounded=0;orthogonalLoop=1;jettySize=auto;html=1;entryX=0.5;entryY=0;entryDx=0;entryDy=0;labelBackgroundColor=none;fontColor=#000000;fontFamily=Inter;fontSource=https%3A%2F%2Ffonts.googleapis.com%2Fcss%3Ffamily%3DInter;fontSize=14;strokeColor=#FFFFFF;strokeWidth=2;" edge="1" parent="2" source="36" target="40">
          <mxGeometry relative="1" as="geometry" />
        </mxCell>
        <mxCell id="42" value="Помилка" style="rounded=1;whiteSpace=wrap;html=1;labelBackgroundColor=none;strokeColor=#FFFFFF;fillColor=#dae8fc;fontColor=#000000;fontFamily=Inter;fontSource=https%3A%2F%2Ffonts.googleapis.com%2Fcss%3Ffamily%3DInter;fontSize=14;strokeWidth=2;" vertex="1" parent="2">
          <mxGeometry x="1060.56" y="281.6300000000001" width="80" height="30" as="geometry" />
        </mxCell>
        <mxCell id="43" style="edgeStyle=orthogonalEdgeStyle;rounded=0;orthogonalLoop=1;jettySize=auto;html=1;exitX=1;exitY=0.5;exitDx=0;exitDy=0;entryX=0.493;entryY=0.001;entryDx=0;entryDy=0;entryPerimeter=0;strokeColor=#FFFFFF;strokeWidth=2;fontSize=14;" edge="1" parent="2" source="36" target="42">
          <mxGeometry relative="1" as="geometry">
            <mxPoint x="1100" y="280" as="targetPoint" />
            <Array as="points">
              <mxPoint x="1100" y="226" />
              <mxPoint x="1100" y="281" />
            </Array>
          </mxGeometry>
        </mxCell>
        <mxCell id="44" value="Продовждення" style="ellipse;whiteSpace=wrap;html=1;aspect=fixed;labelBackgroundColor=none;strokeColor=#FFFFFF;fillColor=#d5e8d4;fontColor=#000000;fontFamily=Inter;fontSource=https%3A%2F%2Ffonts.googleapis.com%2Fcss%3Ffamily%3DInter;fontSize=14;strokeWidth=2;" vertex="1" parent="2">
          <mxGeometry x="946.25" y="353.28999999999996" width="120" height="120" as="geometry" />
        </mxCell>
        <mxCell id="45" style="edgeStyle=orthogonalEdgeStyle;rounded=0;orthogonalLoop=1;jettySize=auto;html=1;entryX=0;entryY=0.5;entryDx=0;entryDy=0;strokeColor=#FFFFFF;strokeWidth=2;fontSize=14;" edge="1" parent="2" source="38" target="44">
          <mxGeometry relative="1" as="geometry" />
        </mxCell>
        <mxCell id="46" style="edgeStyle=orthogonalEdgeStyle;rounded=0;orthogonalLoop=1;jettySize=auto;html=1;entryX=0.5;entryY=0;entryDx=0;entryDy=0;labelBackgroundColor=none;fontColor=#000000;fontFamily=Inter;fontSource=https%3A%2F%2Ffonts.googleapis.com%2Fcss%3Ffamily%3DInter;fontSize=14;strokeColor=#FFFFFF;strokeWidth=2;" edge="1" parent="2" source="40" target="44">
          <mxGeometry relative="1" as="geometry">
            <mxPoint x="1061.31" y="417" as="targetPoint" />
          </mxGeometry>
        </mxCell>
        <mxCell id="47" style="edgeStyle=orthogonalEdgeStyle;rounded=0;orthogonalLoop=1;jettySize=auto;html=1;entryX=1;entryY=0.5;entryDx=0;entryDy=0;strokeColor=#FFFFFF;strokeWidth=2;fontSize=14;" edge="1" parent="2" source="42" target="44">
          <mxGeometry relative="1" as="geometry" />
        </mxCell>
        <mxCell id="48" value="Введення кількості бракованої тари та продукту" style="rounded=1;whiteSpace=wrap;html=1;labelBackgroundColor=none;strokeColor=#FFFFFF;fillColor=#dae8fc;fontColor=#000000;fontFamily=Inter;fontSource=https%3A%2F%2Ffonts.googleapis.com%2Fcss%3Ffamily%3DInter;fontSize=14;strokeWidth=2;" vertex="1" parent="2">
          <mxGeometry x="724" y="580" width="160" height="65" as="geometry" />
        </mxCell>
        <mxCell id="49" style="edgeStyle=orthogonalEdgeStyle;rounded=0;orthogonalLoop=1;jettySize=auto;html=1;labelBackgroundColor=none;fontColor=#000000;fontFamily=Inter;fontSource=https%3A%2F%2Ffonts.googleapis.com%2Fcss%3Ffamily%3DInter;fontSize=14;entryX=0;entryY=0.5;entryDx=0;entryDy=0;strokeColor=#FFFFFF;strokeWidth=2;" edge="1" parent="2" source="50" target="48">
          <mxGeometry relative="1" as="geometry">
            <mxPoint x="777.5" y="610" as="targetPoint" />
          </mxGeometry>
        </mxCell>
        <mxCell id="50" value="Підтвердження кількості промаркованої тари" style="whiteSpace=wrap;html=1;fillColor=#dae8fc;strokeColor=#FFFFFF;rounded=1;labelBackgroundColor=none;fontColor=#000000;fontFamily=Inter;fontSource=https%3A%2F%2Ffonts.googleapis.com%2Fcss%3Ffamily%3DInter;fontSize=14;strokeWidth=2;" vertex="1" parent="2">
          <mxGeometry x="500.5" y="580.0000000000002" width="160" height="65" as="geometry" />
        </mxCell>
        <mxCell id="51" style="edgeStyle=orthogonalEdgeStyle;rounded=0;orthogonalLoop=1;jettySize=auto;html=1;labelBackgroundColor=none;fontColor=#000000;fontFamily=Inter;fontSource=https%3A%2F%2Ffonts.googleapis.com%2Fcss%3Ffamily%3DInter;fontSize=14;strokeColor=#FFFFFF;strokeWidth=2;" edge="1" parent="2" source="52" target="50">
          <mxGeometry relative="1" as="geometry" />
        </mxCell>
        <mxCell id="52" value="Друк етикетки палети на промарковану тару" style="whiteSpace=wrap;html=1;fillColor=#dae8fc;strokeColor=#FFFFFF;rounded=1;labelBackgroundColor=none;fontColor=#000000;fontFamily=Inter;fontSource=https%3A%2F%2Ffonts.googleapis.com%2Fcss%3Ffamily%3DInter;fontSize=14;strokeWidth=2;" vertex="1" parent="2">
          <mxGeometry x="277.5" y="580" width="160" height="65" as="geometry" />
        </mxCell>
        <mxCell id="53" style="edgeStyle=orthogonalEdgeStyle;rounded=0;orthogonalLoop=1;jettySize=auto;html=1;entryX=-0.004;entryY=0.453;entryDx=0;entryDy=0;exitX=0;exitY=0.5;exitDx=0;exitDy=0;strokeColor=#FFFFFF;strokeWidth=2;entryPerimeter=0;fontSize=14;" edge="1" parent="2" source="54" target="3">
          <mxGeometry relative="1" as="geometry">
            <Array as="points">
              <mxPoint y="506" />
              <mxPoint y="252" />
              <mxPoint x="13" y="252" />
            </Array>
          </mxGeometry>
        </mxCell>
        <mxCell id="54" value="Синхронізація з сервером" style="rounded=1;whiteSpace=wrap;html=1;strokeColor=#FFFFFF;fontColor=#000000;fillColor=#12AAB5;fontFamily=Inter;fontSource=https%3A%2F%2Ffonts.googleapis.com%2Fcss%3Ffamily%3DInter;fontSize=14;strokeWidth=2;" vertex="1" parent="2">
          <mxGeometry x="14" y="473.28999999999996" width="160" height="65" as="geometry" />
        </mxCell>
        <mxCell id="55" style="edgeStyle=orthogonalEdgeStyle;rounded=0;orthogonalLoop=1;jettySize=auto;html=1;strokeColor=#FFFFFF;strokeWidth=2;fontSize=14;" edge="1" parent="2" source="57" target="52">
          <mxGeometry relative="1" as="geometry" />
        </mxCell>
        <mxCell id="56" style="edgeStyle=orthogonalEdgeStyle;rounded=0;orthogonalLoop=1;jettySize=auto;html=1;exitX=0.5;exitY=0;exitDx=0;exitDy=0;entryX=0.5;entryY=1;entryDx=0;entryDy=0;strokeColor=#FFFFFF;strokeWidth=2;fontSize=14;" edge="1" parent="2" source="57" target="54">
          <mxGeometry relative="1" as="geometry">
            <mxPoint x="80.09090909090901" y="540" as="targetPoint" />
          </mxGeometry>
        </mxCell>
        <mxCell id="57" value="Завершення" style="shape=process;whiteSpace=wrap;html=1;strokeColor=#FFFFFF;fontColor=#000000;fillColor=#f5f5f5;fontFamily=Inter;fontSource=https%3A%2F%2Ffonts.googleapis.com%2Fcss%3Ffamily%3DInter;fontSize=14;strokeWidth=2;" vertex="1" parent="2">
          <mxGeometry x="13.999999999999943" y="580.0000000000002" width="160" height="65" as="geometry" />
        </mxCell>
        <mxCell id="58" style="edgeStyle=orthogonalEdgeStyle;rounded=0;orthogonalLoop=1;jettySize=auto;html=1;entryX=0.5;entryY=1;entryDx=0;entryDy=0;strokeColor=#FFFFFF;strokeWidth=2;fontSize=14;" edge="1" parent="2" source="32" target="57">
          <mxGeometry relative="1" as="geometry">
            <Array as="points">
              <mxPoint x="1150" y="57" />
              <mxPoint x="1150" y="700" />
              <mxPoint x="94" y="700" />
            </Array>
          </mxGeometry>
        </mxCell>
